<svg width="20" height="21" viewBox="0 0 20 21" fill="none" xmlns="http://www.w3.org/2000/svg">
<path d="M7.49479 9.66667V5.5C7.49479 4.11929 8.61408 3 9.99479 3C11.3755 3 12.4948 4.11929 12.4948 5.5V9.63939M8.66146 18H11.3281C13.195 18 14.1284 18 14.8414 17.6367C15.4686 17.3171 15.9786 16.8072 16.2981 16.18C16.6615 15.4669 16.6615 14.5335 16.6615 12.6667V10.6667C16.6615 9.73325 16.6615 9.26654 16.4798 8.91002C16.32 8.59641 16.065 8.34144 15.7514 8.18166C15.3949 8 14.9282 8 13.9948 8H5.99479C5.06137 8 4.59466 8 4.23814 8.18166C3.92454 8.34144 3.66957 8.59641 3.50978 8.91002C3.32812 9.26654 3.32812 9.73325 3.32812 10.6667V12.6667C3.32812 14.5335 3.32812 15.4669 3.69144 16.18C4.01101 16.8072 4.52095 17.3171 5.14816 17.6367C5.8612 18 6.79462 18 8.66146 18Z" stroke="#0D1E33" stroke-linecap="round" stroke-linejoin="round"/>
</svg>
