<svg width="20" height="21" viewBox="0 0 20 21" fill="none" xmlns="http://www.w3.org/2000/svg">
<path d="M5.35635 16.7006C5.32907 16.9754 5.52972 17.2203 5.80451 17.2476C6.0793 17.2748 6.32418 17.0742 6.35146 16.7994L5.35635 16.7006ZM13.6485 16.7994C13.6758 17.0742 13.9207 17.2748 14.1955 17.2476C14.4703 17.2203 14.6709 16.9754 14.6436 16.7006L13.6485 16.7994ZM17 10.5C17 14.366 13.866 17.5 10 17.5V18.5C14.4183 18.5 18 14.9183 18 10.5H17ZM10 17.5C6.13401 17.5 3 14.366 3 10.5H2C2 14.9183 5.58172 18.5 10 18.5V17.5ZM3 10.5C3 6.63401 6.13401 3.5 10 3.5V2.5C5.58172 2.5 2 6.08172 2 10.5H3ZM10 3.5C13.866 3.5 17 6.63401 17 10.5H18C18 6.08172 14.4183 2.5 10 2.5V3.5ZM11.1667 8.83333C11.1667 9.47767 10.6443 10 10 10V11C11.1966 11 12.1667 10.03 12.1667 8.83333H11.1667ZM10 10C9.35567 10 8.83333 9.47767 8.83333 8.83333H7.83333C7.83333 10.03 8.80338 11 10 11V10ZM8.83333 8.83333C8.83333 8.189 9.35567 7.66667 10 7.66667V6.66667C8.80338 6.66667 7.83333 7.63672 7.83333 8.83333H8.83333ZM10 7.66667C10.6443 7.66667 11.1667 8.189 11.1667 8.83333H12.1667C12.1667 7.63672 11.1966 6.66667 10 6.66667V7.66667ZM6.35146 16.7994C6.53537 14.947 8.09901 13.5 10 13.5V12.5C7.57987 12.5 5.59054 14.3418 5.35635 16.7006L6.35146 16.7994ZM10 13.5C11.901 13.5 13.4646 14.947 13.6485 16.7994L14.6436 16.7006C14.4095 14.3418 12.4201 12.5 10 12.5V13.5Z" fill="#0D1E33"/>
</svg>
