<svg width="15" height="13" viewBox="0 0 15 13" fill="none" xmlns="http://www.w3.org/2000/svg">
<path d="M14.7383 2.77353C14.4892 2.12373 14.0732 1.47107 13.5722 1.06459C12.4911 0.0884584 10.9911 -0.23501 9.576 0.171472C8.91094 0.334638 8.24296 0.74112 7.74489 1.22775L7.49586 1.47107L7.24683 1.22775C6.49681 0.414789 5.41572 0.008307 4.24967 0.008307C3.33265 0.008307 2.41856 0.334638 1.7535 0.821272C1.00348 1.39092 0.420454 2.12373 0.171423 3.01685C-0.244605 4.47961 0.0893889 6.10841 1.25251 7.16469L6.74584 12.6951C7.16187 13.1016 7.82693 13.1016 8.24296 12.6951L13.7392 7.16469C14.9053 6.02825 15.3213 4.31931 14.7383 2.77353ZM13.0126 6.45764L13.0009 6.46909L7.51637 11.991C7.50758 11.9967 7.50172 11.9995 7.49586 11.9995C7.48707 11.9995 7.48121 11.9967 7.47535 11.991L1.97031 6.44905L1.9498 6.43187C1.1236 5.68189 0.818903 4.47675 1.15876 3.28593V3.2802C1.33161 2.65903 1.74178 2.10083 2.37461 1.61706C2.89904 1.23634 3.59633 1.0102 4.24967 1.0102C5.16376 1.0102 5.95773 1.32508 6.48509 1.89759L6.50267 1.91763L7.49586 2.88803L8.47148 1.9348C8.867 1.54836 9.37385 1.25065 9.82503 1.14188L9.84554 1.13615L9.86605 1.13043C10.1678 1.04455 10.4754 0.99875 10.7831 0.99875C11.5595 0.99875 12.3036 1.28214 12.8779 1.80026L12.8984 1.81744L12.9189 1.83462C13.247 2.10083 13.5781 2.59605 13.7802 3.12276C14.208 4.27351 13.9091 5.5817 13.0126 6.45764Z" fill="#0D1E33"/>
</svg>
