<svg width="40" height="25" viewBox="0 0 40 25" fill="none" xmlns="http://www.w3.org/2000/svg">
<g clip-path="url(#clip0_274_504)">
<path opacity="0.07" d="M36.4368 0.00195312H3.12316C1.35337 0.00195312 0 1.35594 0 3.12654V21.8741C0 23.6447 1.45747 24.9986 3.12316 24.9986H36.4368C38.2066 24.9986 39.56 23.6447 39.56 21.8741V3.12654C39.56 1.35594 38.1025 0.00195312 36.4368 0.00195312Z" fill="black"/>
<path d="M36.4427 1.04297C37.5878 1.04297 38.5248 1.98034 38.5248 3.12603V21.8735C38.5248 23.0192 37.5878 23.9566 36.4427 23.9566H3.12898C1.98382 23.9566 1.04688 23.0192 1.04688 21.8735V3.12603C1.04688 1.98034 1.98382 1.04297 3.12898 1.04297H36.4427Z" fill="white"/>
<path d="M18.841 12.4737V15.8066H17.7812V7.57849H20.5827C20.9184 7.57281 21.2519 7.63355 21.564 7.75724C21.8761 7.88093 22.1607 8.06512 22.4014 8.29923C22.6295 8.51211 22.8133 8.76787 22.9425 9.05188C23.0717 9.33589 23.1436 9.64258 23.1543 9.95443C23.1649 10.2663 23.114 10.5772 23.0045 10.8693C22.895 11.1615 22.7289 11.4292 22.516 11.6571L22.4014 11.7779C21.9121 12.2435 21.2584 12.4966 20.5827 12.4799L18.841 12.4737ZM18.841 8.58669V11.4905H20.6087C21.0012 11.503 21.3802 11.3499 21.655 11.0697C21.8516 10.8647 21.9836 10.6064 22.0346 10.3269C22.0856 10.0474 22.0534 9.75913 21.9419 9.49785C21.8304 9.23657 21.6445 9.01385 21.4075 8.85741C21.1705 8.70096 20.8927 8.61768 20.6087 8.61794L18.841 8.58669ZM25.5912 9.99067C26.2679 9.95943 26.93 10.1865 27.4422 10.6291C27.9055 11.077 28.1522 11.7019 28.1189 12.3466V15.8191H27.1101V15.0213H27.0591C26.8782 15.3205 26.6224 15.5673 26.3169 15.7374C26.0115 15.9074 25.667 15.9948 25.3174 15.9909C24.7468 16.0094 24.1904 15.8111 23.76 15.4358C23.5561 15.2694 23.3927 15.0588 23.2821 14.8199C23.1716 14.5809 23.1168 14.32 23.1218 14.0568C23.1098 13.7908 23.1615 13.5258 23.2725 13.2837C23.3835 13.0417 23.5506 12.8297 23.76 12.6653C24.2737 12.2957 24.8954 12.1071 25.5277 12.1289C26.0659 12.1081 26.6 12.2258 27.0789 12.4737V12.257C27.0824 12.0779 27.0451 11.9004 26.9699 11.7378C26.8947 11.5752 26.7835 11.4319 26.6448 11.3186C26.3661 11.0652 26.0011 10.928 25.6245 10.9353C25.3511 10.9328 25.0815 11 24.8412 11.1306C24.6009 11.2613 24.3979 11.4511 24.2514 11.6821L23.3197 11.0947C23.5727 10.732 23.9142 10.4402 24.3118 10.2469C24.7095 10.0537 25.1499 9.96547 25.5912 9.99067ZM24.2514 14.0818C24.2489 14.2167 24.2796 14.3501 24.3408 14.4704C24.4019 14.5906 24.4917 14.6939 24.6022 14.7713C24.8344 14.9546 25.1228 15.0515 25.4195 15.0452C25.8661 15.0442 26.2939 14.8682 26.6125 14.5536C26.93 14.2557 27.1101 13.8402 27.1101 13.4048C26.7094 13.1197 26.2224 12.9821 25.7318 13.0153C25.3508 13.0003 24.9751 13.1076 24.6595 13.3215C24.5345 13.4051 24.4319 13.5182 24.3608 13.6508C24.2896 13.7833 24.2521 13.9313 24.2514 14.0818ZM33.9186 10.1761L30.3894 18.2896H29.2984L30.632 15.4483L28.3167 10.1761H29.465L31.1432 14.2224L32.7766 10.1761H33.9186Z" fill="#5F6368"/>
<path d="M14.5577 11.7551C14.5577 11.4343 14.5328 11.1135 14.4817 10.7969H10.0156V12.6164H12.5672C12.5153 12.9056 12.4055 13.1813 12.2445 13.427C12.0835 13.6727 11.8746 13.8834 11.6303 14.0464V15.2275H13.1544C13.6178 14.7789 13.9821 14.2382 14.2238 13.6401C14.4655 13.042 14.5793 12.3999 14.5577 11.7551Z" fill="#4285F4"/>
<path d="M10.023 16.3766C11.1748 16.4082 12.2953 15.9996 13.1566 15.234L11.6304 14.0467C11.2637 14.2819 10.8482 14.4304 10.4155 14.4808C9.98285 14.5312 9.54437 14.4823 9.13344 14.3377C8.7225 14.1931 8.34994 13.9566 8.04408 13.6463C7.73822 13.336 7.50712 12.96 7.36835 12.5469H5.80469V13.7655C6.19597 14.5498 6.7979 15.2095 7.54299 15.6707C8.28808 16.1319 9.14686 16.3763 10.023 16.3766Z" fill="#34A853"/>
<path d="M7.36857 12.553C7.17046 11.9669 7.17046 11.332 7.36857 10.7459V9.52734H5.80419C5.47068 10.185 5.29688 10.912 5.29688 11.6495C5.29688 12.3869 5.47068 13.1139 5.80419 13.7716L7.36857 12.553Z" fill="#FBBC04"/>
<path d="M10.023 8.79312C10.6966 8.78081 11.3477 9.03539 11.8345 9.50136L13.1878 8.15466C12.3249 7.34437 11.1803 6.90239 9.99701 6.92253C9.12603 6.92691 8.27327 7.17251 7.53329 7.63211C6.7933 8.09171 6.19499 8.74736 5.80469 9.52636L7.36835 10.746C7.55118 10.1836 7.90562 9.6928 8.38182 9.3425C8.85802 8.99219 9.432 8.80006 10.023 8.79312Z" fill="#EA4335"/>
</g>
<defs>
<clipPath id="clip0_274_504">
<rect width="39.56" height="25" fill="white"/>
</clipPath>
</defs>
</svg>
