<svg width="41" height="25" viewBox="0 0 41 25" fill="none" xmlns="http://www.w3.org/2000/svg">
<g clip-path="url(#clip0_274_534)">
<path d="M19.1766 0.00195312V24.9986H11.6811C10.3277 24.9986 9.49484 23.9571 9.80716 22.6031L14.3878 2.39747C14.7001 1.04348 16.3658 0.00195312 17.7192 0.00195312H19.1766ZM32.2939 0.00195312C30.9405 0.00195312 29.2748 1.04348 28.9625 2.39747L24.2778 22.6031C23.9655 23.9571 24.7983 24.9986 26.1517 24.9986H21.0505V0.00195312H32.2939Z" fill="#005B9A"/>
<path d="M17.7244 0.00195312C16.3711 0.00195312 14.7054 1.14763 14.3931 2.39747L9.81243 22.6031C9.50011 23.9571 10.333 24.9986 11.6863 24.9986H2.42095C1.58811 24.9986 0.859375 24.3737 0.859375 23.5405V1.6684C0.859375 0.835177 1.58811 0.00195312 2.42095 0.00195312H17.7244Z" fill="#E9292D"/>
<path d="M32.2945 0.00195312C30.9411 0.00195312 29.2754 1.14763 28.9631 2.39747L24.3825 22.6031C24.0702 23.9571 24.903 24.9986 26.2564 24.9986H11.1611H11.6816C10.3283 24.9986 9.49543 23.9571 9.80775 22.6031L14.3884 2.39747C14.7007 1.04348 16.3664 0.00195312 17.7197 0.00195312H32.2945Z" fill="#0E73B9"/>
<path d="M40.3087 1.6684V23.5405C40.3087 24.3737 39.6841 24.9986 38.7471 24.9986H26.1504C24.797 24.9986 23.9642 23.853 24.2765 22.6031L28.9612 2.39747C29.2736 1.04348 30.9392 0.00195312 32.2926 0.00195312H38.7471C39.6841 0.00195312 40.3087 0.731024 40.3087 1.6684Z" fill="#059DA4"/>
<path d="M16.2373 14.213H16.383C16.5288 14.213 16.6745 14.1401 16.6745 14.0672L17.1118 13.4111H18.3506L18.132 13.7756H19.5895L19.3708 14.4318H17.6219C17.4032 14.7234 17.1846 14.8692 16.8931 14.8692H16.0186L16.2373 14.213ZM16.0186 15.1608H19.1522L18.9336 15.8899H17.6947L17.4761 16.619H18.715L18.4964 17.348H17.2575L16.966 18.4417C16.8931 18.5875 16.966 18.7333 17.2575 18.6604H18.2777L18.0591 19.3894H16.0915C15.7272 19.3894 15.5814 19.1707 15.7272 18.7333L16.0915 17.348H15.2899L15.5085 16.619H16.3101L16.5288 15.8899H15.8L16.0186 15.1608ZM21.0469 13.3382V13.7756C21.0469 13.7756 21.6299 13.3382 22.2129 13.3382H24.2534L23.4518 16.1086C23.3789 16.4003 23.0874 16.619 22.6502 16.619H20.3182L19.8081 18.5875C19.8081 18.6604 19.8081 18.7333 19.9538 18.7333H20.3911L20.2453 19.3165H19.0793C18.6421 19.3165 18.4964 19.1707 18.5692 18.952L20.0996 13.3382H21.0469ZM22.7959 14.1401H20.9741L20.7554 14.8692C20.7554 14.8692 21.0469 14.6505 21.5571 14.6505H22.6502L22.7959 14.1401ZM22.14 15.8899C22.2858 15.8899 22.3587 15.8899 22.3587 15.7441L22.5044 15.3796H20.6826L20.5368 15.9628L22.14 15.8899ZM20.9012 16.7648H21.9214V17.2022H22.2129C22.3587 17.2022 22.4315 17.1293 22.4315 17.0564L22.5044 16.7648H23.3789L23.2331 17.2751C23.1603 17.6397 22.8688 17.7855 22.4315 17.8584H21.8485V18.6604C21.8485 18.8062 21.9214 18.8791 22.2129 18.8791H22.723L22.5773 19.4624H21.3384C20.9741 19.4624 20.8283 19.3165 20.8283 18.952L20.9012 16.7648ZM25.2736 14.213L25.4922 13.3382H26.7311L26.6582 13.6298C26.6582 13.6298 27.2412 13.3382 27.7513 13.3382H29.2817L29.063 14.213H28.8444L27.6784 18.2229H27.8971L27.6784 19.0249H27.4598L27.3869 19.3894H26.1481L26.221 19.0249H23.9619L24.1805 18.2229H24.3991L25.5651 14.213H25.2736ZM26.5853 14.213L26.2938 15.3067C26.2938 15.3067 26.804 15.0879 27.2412 15.015C27.3141 14.6505 27.4598 14.213 27.4598 14.213H26.5853ZM26.0752 15.817L25.7837 16.9835C25.7837 16.9835 26.3667 16.6919 26.804 16.6919C26.9497 16.2544 27.0226 15.8899 27.0226 15.8899L26.0752 15.817ZM26.2938 18.2229L26.5125 17.421H25.638L25.4194 18.2229H26.2938ZM29.2817 13.3382H30.4476L30.5205 13.7756C30.5205 13.8485 30.5934 13.9214 30.7391 13.9214H30.9578L30.7391 14.6505H29.9375C29.646 14.6505 29.4274 14.5776 29.4274 14.286L29.2817 13.3382ZM28.9173 14.8692H32.6339L32.4152 15.6712H31.1764L30.9578 16.4003H32.1237L31.9051 17.2022H30.5934L30.3019 17.6397H30.9578L31.1035 18.5146C31.1035 18.5875 31.1764 18.6604 31.3221 18.6604H31.5407L31.3221 19.3894H30.5934C30.229 19.3894 30.0104 19.3165 30.0104 19.0249L29.8646 18.2229L29.2817 19.0978C29.1359 19.3165 28.9173 19.4624 28.6258 19.4624H27.5327L27.7513 18.7333H28.1157C28.2614 18.7333 28.3343 18.6604 28.48 18.5146L29.3545 17.2022H28.2614L28.48 16.4003H29.7189L29.9375 15.6712H28.6987L28.9173 14.8692ZM8.36691 9.6199C8.22117 10.349 7.92967 10.8593 7.41956 11.2239C6.90944 11.5884 6.25358 11.8071 5.45197 11.8071C4.72323 11.8071 4.14024 11.5884 3.84875 11.2239C3.63012 10.9322 3.48438 10.6406 3.48438 10.2032C3.48438 10.0573 3.48438 9.83862 3.55725 9.6199L4.43173 5.53711H5.67059L4.86898 9.6199V9.91153C4.86898 10.1303 4.94185 10.2761 5.01472 10.4219C5.16047 10.6406 5.37909 10.7135 5.74346 10.7135C6.10783 10.7135 6.4722 10.6406 6.69082 10.4219C6.90944 10.2032 7.12806 9.98444 7.20093 9.6199L8.00255 5.53711H9.2414L8.36691 9.6199ZM9.53289 8.01595H10.4074L10.3345 8.5263L10.4802 8.38048C10.7717 8.08885 11.1361 7.94304 11.5734 7.94304C11.9377 7.94304 12.2292 8.08885 12.375 8.30757C12.5207 8.5263 12.5936 8.81792 12.5207 9.25537L12.0106 11.7342H11.0632L11.5005 9.47409C11.5734 9.18246 11.5734 8.96374 11.5005 8.89083C11.4276 8.74502 11.2819 8.74502 11.1361 8.74502C10.9175 8.74502 10.6989 8.81792 10.5531 8.96374C10.4074 9.10955 10.2616 9.32827 10.2616 9.6199L9.82439 11.7342H8.87703L9.53289 8.01595ZM19.7352 8.01595H20.6097L20.5368 8.5263L20.6826 8.38048C20.9741 8.08885 21.3384 7.94304 21.7757 7.94304C22.14 7.94304 22.4315 8.08885 22.5773 8.30757C22.723 8.5263 22.7959 8.81792 22.723 9.25537L22.2129 11.7342H21.2656L21.7028 9.40118C21.7757 9.18246 21.7028 8.96374 21.6299 8.89083C21.557 8.74502 21.4113 8.74502 21.2656 8.74502C21.0469 8.74502 20.8283 8.81792 20.6826 8.96374C20.5368 9.10955 20.3911 9.32827 20.3911 9.6199L19.9538 11.7342H19.0065L19.7352 8.01595ZM13.6867 8.01595H14.7069L13.9053 11.6613H12.8851L13.6867 8.01595ZM14.0511 6.63071H15.0713L14.8527 7.5056H13.8324L14.0511 6.63071ZM15.5085 11.3697C15.2899 11.151 15.1442 10.7864 15.1442 10.349V10.1302C15.1442 10.0573 15.1442 9.91153 15.217 9.83862C15.3628 9.25537 15.5814 8.74502 15.9458 8.45339C16.3101 8.08886 16.8203 7.94304 17.3304 7.94304C17.7676 7.94304 18.132 8.08885 18.4235 8.30757C18.6421 8.5263 18.7878 8.89083 18.7878 9.32828V9.547C18.7878 9.6199 18.7878 9.76572 18.715 9.83862C18.5692 10.4219 18.3506 10.8593 17.9862 11.2239C17.6219 11.5884 17.1118 11.7342 16.6016 11.7342C16.2373 11.7342 15.8729 11.5884 15.5085 11.3697ZM17.4761 10.6406C17.6219 10.4219 17.7676 10.1303 17.8405 9.76572V9.40118C17.8405 9.18246 17.7676 9.03665 17.6947 8.89083C17.6306 8.81956 17.5518 8.76309 17.4637 8.72532C17.3757 8.68755 17.2804 8.6694 17.1846 8.67211C16.8931 8.67211 16.6745 8.74502 16.5288 8.96374C16.383 9.18246 16.2373 9.47409 16.1644 9.83862V10.1302C16.1644 10.349 16.2373 10.4948 16.3101 10.6406C16.4559 10.7864 16.6016 10.8593 16.8203 10.8593C17.1118 10.9322 17.2575 10.8593 17.4761 10.6406ZM24.2534 5.75583H26.8768C27.3869 5.75583 27.7513 5.90164 28.0428 6.12037C28.3343 6.33909 28.4072 6.70362 28.4072 7.06816V7.35978C28.4072 7.43269 28.4072 7.57851 28.3343 7.65141C28.2614 8.16176 27.9699 8.67211 27.6056 8.96374C27.1683 9.32827 26.7311 9.47409 26.1481 9.47409H24.6906L24.2534 11.5884H23.0145L24.2534 5.75583ZM24.8364 8.45339H26.0023C26.2938 8.45339 26.5125 8.38048 26.7311 8.23467C26.8768 8.08885 27.0226 7.87014 27.0954 7.57851V7.28688C27.0954 7.06816 27.0226 6.92234 26.8768 6.84944C26.7311 6.77653 26.5125 6.70362 26.1481 6.70362H25.2007L24.8364 8.45339ZM33.8727 12.3175C33.5083 13.1194 33.144 13.6298 32.9253 13.8485C32.7067 14.0672 32.2695 14.5776 31.2492 14.5776L31.3221 13.9214C32.1966 13.6298 32.6339 12.4633 32.9253 11.88L32.6339 7.94304H33.8727L33.9456 10.4219L34.8929 8.01595H35.986L33.8727 12.3175ZM30.812 8.30757L30.3748 8.59921C29.9375 8.23467 29.5003 8.01595 28.7715 8.38048C27.7513 8.89083 26.804 12.682 29.7189 11.4426L29.8646 11.6613H31.0306L31.7594 8.23467L30.812 8.30757ZM30.229 10.2032C30.0104 10.7864 29.646 11.078 29.2817 11.0051C28.9902 10.8593 28.9173 10.349 29.063 9.76572C29.2817 9.18246 29.646 8.89083 30.0104 8.96374C30.3019 9.10955 30.3748 9.6199 30.229 10.2032Z" fill="white"/>
</g>
<defs>
<clipPath id="clip0_274_534">
<rect width="39.56" height="25" fill="white" transform="translate(0.75)"/>
</clipPath>
</defs>
</svg>
