<svg width="41" height="25" viewBox="0 0 41 25" fill="none" xmlns="http://www.w3.org/2000/svg">
<g clip-path="url(#clip0_274_518)">
<path opacity="0.07" d="M36.9368 0.00195312H3.62316C1.85337 0.00195312 0.5 1.35594 0.5 3.12654V21.8741C0.5 23.6447 1.95747 24.9986 3.62316 24.9986H36.9368C38.7066 24.9986 40.06 23.6447 40.06 21.8741V3.12654C40.06 1.35594 38.6025 0.00195312 36.9368 0.00195312Z" fill="black"/>
<path d="M36.9427 1.04297C38.0878 1.04297 39.0248 1.98034 39.0248 3.12603V21.8735C39.0248 23.0192 38.0878 23.9566 36.9427 23.9566H3.62898C2.48382 23.9566 1.54688 23.0192 1.54688 21.8735V3.12603C1.54688 1.98034 2.48382 1.04297 3.62898 1.04297H36.9427Z" fill="white"/>
<path d="M16.1155 19.7904C20.1402 19.7904 23.4029 16.5262 23.4029 12.4997C23.4029 8.47314 20.1402 5.20898 16.1155 5.20898C12.0908 5.20898 8.82812 8.47314 8.82812 12.4997C8.82812 16.5262 12.0908 19.7904 16.1155 19.7904Z" fill="#EB001B"/>
<path d="M24.4436 19.7904C28.4683 19.7904 31.731 16.5262 31.731 12.4997C31.731 8.47314 28.4683 5.20898 24.4436 5.20898C20.4189 5.20898 17.1562 8.47314 17.1562 12.4997C17.1562 16.5262 20.4189 19.7904 24.4436 19.7904Z" fill="#F79E1B"/>
<path d="M23.4026 12.4992C23.4026 9.99955 22.1533 7.81233 20.2794 6.5625C18.4055 7.91649 17.1562 10.1037 17.1562 12.4992C17.1562 14.8947 18.4055 17.1861 20.2794 18.4359C22.1533 17.1861 23.4026 14.9989 23.4026 12.4992Z" fill="#FF5F00"/>
</g>
<defs>
<clipPath id="clip0_274_518">
<rect width="39.56" height="25" fill="white" transform="translate(0.5)"/>
</clipPath>
</defs>
</svg>
