<svg width="41" height="25" viewBox="0 0 41 25" fill="none" xmlns="http://www.w3.org/2000/svg">
<g clip-path="url(#clip0_274_480)">
<path d="M36.5531 0H4.51117C4.3777 0 4.24399 0 4.11075 0.000707781C3.99826 0.00165149 3.88601 0.00283112 3.77353 0.00589817C3.52851 0.0125041 3.28137 0.0271316 3.03942 0.0705422C2.79678 0.112134 2.56168 0.189661 2.34187 0.300571C1.89999 0.525428 1.54081 0.884765 1.31606 1.32685C1.205 1.54685 1.1275 1.78224 1.08613 2.0252C1.04227 2.26749 1.02789 2.51451 1.02128 2.7594C1.01841 2.87184 1.01668 2.9843 1.0161 3.09678C1.01562 3.22984 1.01562 3.36337 1.01562 3.49715V21.5026C1.01562 21.6364 1.01562 21.7697 1.0161 21.9035C1.0168 22.0158 1.01822 22.1283 1.02128 22.2408C1.02789 22.4853 1.04251 22.7325 1.08613 22.9746C1.12742 23.2175 1.20484 23.4529 1.31582 23.6729C1.42741 23.8926 1.57306 24.0933 1.74737 24.2674C1.92138 24.4419 2.12197 24.5876 2.34164 24.6992C2.56496 24.8131 2.7937 24.8856 3.03966 24.9297C3.28137 24.9729 3.52851 24.9875 3.77353 24.9941C3.88601 24.9967 3.99826 24.9981 4.11075 24.9988C4.24399 24.9998 4.3777 24.9998 4.51117 24.9998H36.5531C36.6863 24.9998 36.82 24.9998 36.9533 24.9988C37.0655 24.9983 37.1778 24.9967 37.2907 24.9941C37.5353 24.9875 37.7824 24.9729 38.0248 24.9297C38.2675 24.8881 38.5026 24.8104 38.7224 24.6992C39.1641 24.474 39.5231 24.1148 39.7482 23.6729C39.8621 23.4495 39.9343 23.2206 39.9779 22.9746C40.0217 22.7325 40.0359 22.4853 40.0425 22.2408C40.0456 22.1283 40.0472 22.0158 40.0477 21.9035C40.0486 21.7697 40.0486 21.6364 40.0486 21.5026V3.49738C40.0486 3.36361 40.0486 3.23008 40.0477 3.09654C40.0472 2.98415 40.0455 2.87176 40.0425 2.7594C40.0359 2.51451 40.0217 2.26749 39.9779 2.0252C39.9368 1.7822 39.8594 1.54677 39.7482 1.32685C39.5233 0.884842 39.1642 0.525534 38.7224 0.300571C38.5026 0.189775 38.2675 0.112329 38.0248 0.0707781C37.7824 0.0271316 37.5353 0.0127401 37.2907 0.0061341C37.1783 0.00327638 37.0658 0.00154617 36.9533 0.000943708C36.82 0 36.6863 0 36.5531 0Z" fill="black"/>
<path d="M36.5483 0.832031L36.9426 0.832739C37.0492 0.833447 37.156 0.834626 37.2633 0.837458C37.4503 0.842648 37.6687 0.852793 37.8724 0.889362C38.0493 0.921212 38.1979 0.969577 38.3403 1.04224C38.6253 1.18723 38.8569 1.41916 39.0015 1.70449C39.0737 1.84605 39.1218 1.99374 39.1536 2.17233C39.1899 2.37381 39.2001 2.59299 39.205 2.78102C39.2081 2.88719 39.2095 2.99336 39.2098 3.10188C39.2109 3.2333 39.2109 3.36447 39.2109 3.49612V21.5016C39.2109 21.6332 39.2109 21.7644 39.21 21.8984C39.2095 22.0046 39.2081 22.1108 39.2053 22.2169C39.2001 22.4047 39.1899 22.6239 39.1532 22.8277C39.1264 22.9899 39.0751 23.147 39.0011 23.2937C38.8561 23.5791 38.6242 23.811 38.3389 23.9559C38.1974 24.0281 38.0493 24.0765 37.8741 24.1081C37.6663 24.1452 37.4385 24.1553 37.2671 24.16C37.1593 24.1624 37.052 24.164 36.9419 24.1645C36.811 24.1654 36.6794 24.1654 36.5483 24.1654H4.50119C4.37149 24.1654 4.24179 24.1654 4.10974 24.1645C4.00361 24.164 3.89748 24.1626 3.79138 24.1603C3.61593 24.1555 3.38813 24.1452 3.18202 24.1083C3.01907 24.0812 2.86116 24.0295 2.71369 23.955C2.57222 23.8831 2.44311 23.7891 2.33119 23.6766C2.21892 23.5645 2.12515 23.4352 2.05339 23.2937C1.97929 23.1462 1.92792 22.9883 1.90105 22.8254C1.86427 22.6218 1.85389 22.4035 1.84917 22.2172C1.84651 22.1106 1.84494 22.0041 1.84446 21.8975L1.84375 21.5844V3.41354L1.84422 3.10094C1.84471 2.99421 1.84628 2.88749 1.84894 2.78079C1.85413 2.59393 1.86427 2.3757 1.90129 2.17044C1.92821 2.00786 1.97958 1.85028 2.05363 1.70307C2.12532 1.56199 2.2187 1.43317 2.3319 1.32016C2.44408 1.20775 2.57334 1.11379 2.71487 1.04177C2.86198 0.967825 3.01939 0.916447 3.18179 0.889362C3.38577 0.852793 3.60438 0.842648 3.79162 0.837458C3.89821 0.834626 4.00503 0.833447 4.11091 0.832739L4.50638 0.832031H36.5483Z" fill="white"/>
<path d="M11.2699 8.43863C11.6011 8.02458 11.8257 7.4685 11.7665 6.90039C11.2819 6.92446 10.6907 7.22007 10.3481 7.6346C10.0407 7.98943 9.76867 8.56863 9.83945 9.11291C10.3835 9.1601 10.9271 8.84113 11.2699 8.43863Z" fill="black"/>
<path d="M11.763 9.21801C10.973 9.17083 10.3019 9.66627 9.92481 9.66627C9.5475 9.66627 8.96998 9.24161 8.3453 9.25317C7.53243 9.26496 6.77828 9.72502 6.36559 10.4564C5.51712 11.9191 6.14157 14.0897 6.96693 15.2811C7.36759 15.8709 7.85055 16.5197 8.48679 16.4964C9.08813 16.4728 9.32371 16.1071 10.0543 16.1071C10.7846 16.1071 10.9968 16.4964 11.6333 16.4846C12.2931 16.4728 12.7058 15.8947 13.1065 15.3049C13.5663 14.6325 13.7543 13.9837 13.7661 13.9483C13.7543 13.9366 12.4936 13.4527 12.4818 12.0017C12.47 10.7867 13.4718 10.2087 13.5189 10.173C12.9532 9.33598 12.0694 9.2416 11.7628 9.21801" fill="black"/>
<path d="M19.6364 7.57422C21.3527 7.57422 22.5481 8.75786 22.5481 10.4811C22.5481 12.2104 21.3282 13.4002 19.5935 13.4002H17.6933V16.4238H16.3203V7.57422H19.6364ZM17.6933 12.2472H19.2685C20.4641 12.2472 21.1442 11.6034 21.1442 10.4872C21.1442 9.37127 20.4639 8.73333 19.2747 8.73333H17.6933V12.2472Z" fill="black"/>
<path d="M22.8906 14.5887C22.8906 13.4542 23.7549 12.8042 25.3486 12.706L27.0587 12.6018V12.111C27.0587 11.3938 26.5869 11.0012 25.7471 11.0012C25.0543 11.0012 24.5515 11.3568 24.4477 11.9025H23.2092C23.2462 10.7559 24.3249 9.92188 25.7839 9.92188C27.353 9.92188 28.3767 10.7436 28.3767 12.0193V16.4224H27.108V15.3614H27.0774C26.7156 16.0543 25.9185 16.4896 25.0543 16.4896C23.7794 16.4896 22.8906 15.7295 22.8906 14.5887ZM27.0587 14.0185V13.5216L25.5325 13.6198C24.6741 13.675 24.227 13.9937 24.227 14.5517C24.227 15.0915 24.6928 15.4411 25.4221 15.4411C26.3536 15.4411 27.0587 14.8461 27.0587 14.0185Z" fill="black"/>
<path d="M29.5439 18.7917V17.731C29.6297 17.743 29.838 17.7553 29.9483 17.7553C30.5551 17.7553 30.8984 17.4981 31.1069 16.8354L31.2295 16.4431L28.9062 10.0039H30.3405L31.9589 15.2287H31.9896L33.6078 10.0039H35.0055L32.5963 16.7679C32.0445 18.3196 31.4132 18.8288 30.0771 18.8288C29.9729 18.8288 29.6356 18.8165 29.5439 18.7917Z" fill="black"/>
</g>
<defs>
<clipPath id="clip0_274_480">
<rect width="39.56" height="25" fill="white" transform="translate(0.75)"/>
</clipPath>
</defs>
</svg>
