<svg width="41" height="25" viewBox="0 0 41 25" fill="none" xmlns="http://www.w3.org/2000/svg">
<g clip-path="url(#clip0_274_540)">
<path opacity="0.07" d="M36.9368 0.00195312H3.62316C1.85337 0.00195312 0.5 1.35594 0.5 3.12654V21.8741C0.5 23.6447 1.95747 24.9986 3.62316 24.9986H36.9368C38.7066 24.9986 40.06 23.6447 40.06 21.8741V3.12654C40.06 1.35594 38.6025 0.00195312 36.9368 0.00195312Z" fill="black"/>
<path d="M36.9427 1.04297C38.0878 1.04297 39.0248 1.98034 39.0248 3.12603V21.8735C39.0248 23.0192 38.0878 23.9566 36.9427 23.9566H3.62898C2.48382 23.9566 1.54688 23.0192 1.54688 21.8735V3.12603C1.54688 1.98034 2.48382 1.04297 3.62898 1.04297H36.9427Z" fill="white"/>
<path d="M29.9597 10.5212H29.6473C29.2309 11.5627 28.9186 12.0835 28.6063 13.6458H30.5843C30.272 12.0835 30.272 11.3544 29.9597 10.5212ZM32.9787 16.6662H31.2089C31.1048 16.6662 31.1048 16.6662 31.0007 16.5621L30.7925 15.6247L30.6884 15.4164H28.1899C28.0858 15.4164 27.9817 15.4164 27.9817 15.6247L27.6693 16.5621C27.6693 16.6662 27.5652 16.6662 27.5652 16.6662H25.379L25.5872 16.1455L28.6063 9.06305C28.6063 8.54229 28.9186 8.33398 29.4391 8.33398H31.0007C31.1048 8.33398 31.2089 8.33398 31.2089 8.54229L32.6664 15.3122C32.7705 15.7288 32.8746 16.0413 32.8746 16.4579C32.9787 16.5621 32.9787 16.5621 32.9787 16.6662ZM19.0286 16.3538L19.445 14.479C19.5491 14.479 19.6532 14.5832 19.6532 14.5832C20.382 14.8956 21.1107 15.1039 21.8394 14.9998C22.0477 14.9998 22.36 14.8956 22.5682 14.7915C23.0887 14.5832 23.0887 14.0624 22.6723 13.6458C22.4641 13.4375 22.1518 13.3333 21.8394 13.125C21.423 12.9167 21.0066 12.7084 20.6943 12.3959C19.445 11.3544 19.8614 9.89628 20.5902 9.16721C21.2148 8.7506 21.5271 8.33398 22.36 8.33398C23.6092 8.33398 24.9626 8.33398 25.5872 8.54229H25.6913C25.5872 9.16721 25.4831 9.68797 25.2749 10.3129C24.7544 10.1046 24.2339 9.89628 23.7133 9.89628C23.401 9.89628 23.0887 9.89628 22.7764 10.0004C22.5682 10.0004 22.4641 10.1046 22.36 10.2087C22.1518 10.417 22.1518 10.7295 22.36 10.9378L22.8805 11.3544C23.2969 11.5627 23.7133 11.771 24.0257 11.9793C24.5462 12.2918 25.0667 12.8126 25.1708 13.4375C25.379 14.3749 25.0667 15.2081 24.2339 15.833C23.7133 16.2496 23.5051 16.4579 22.7764 16.4579C21.3189 16.4579 20.1738 16.5621 19.2368 16.2496C19.1327 16.4579 19.1327 16.4579 19.0286 16.3538ZM15.3849 16.6662C15.489 15.9371 15.489 15.9371 15.5931 15.6247C16.1137 13.3333 16.6342 10.9378 17.0506 8.64644C17.1547 8.43814 17.1547 8.33398 17.3629 8.33398H19.2368C19.0286 9.58382 18.8204 10.5212 18.5081 11.6669C18.1958 13.2292 17.8834 14.7915 17.467 16.3538C17.467 16.5621 17.3629 16.5621 17.1547 16.5621M5.70312 8.54229C5.70312 8.43814 5.91134 8.33398 6.01544 8.33398H9.55502C10.0755 8.33398 10.492 8.64644 10.5961 9.16721L11.533 13.7499C11.533 13.8541 11.533 13.8541 11.6371 13.9582C11.6371 13.8541 11.7412 13.8541 11.7412 13.8541L13.9274 8.54229C13.8233 8.43814 13.9274 8.33398 14.0315 8.33398H16.2178C16.2178 8.43814 16.2178 8.43814 16.1137 8.54229L12.8864 16.1455C12.7823 16.3538 12.7823 16.4579 12.6782 16.5621C12.5741 16.6662 12.3659 16.5621 12.1577 16.5621H10.5961C10.492 16.5621 10.3879 16.5621 10.3879 16.3538L8.72218 9.89628C8.51397 9.68797 8.20165 9.37551 7.78523 9.27136C7.1606 8.9589 6.01544 8.7506 5.80723 8.7506L5.70312 8.54229Z" fill="#142688"/>
</g>
<defs>
<clipPath id="clip0_274_540">
<rect width="39.56" height="25" fill="white" transform="translate(0.5)"/>
</clipPath>
</defs>
</svg>
