<svg width="41" height="25" viewBox="0 0 41 25" fill="none" xmlns="http://www.w3.org/2000/svg">
<g clip-path="url(#clip0_274_512)">
<path opacity="0.07" d="M37.1868 0.00195312H3.87316C2.10337 0.00195312 0.75 1.35594 0.75 3.12654V21.8741C0.75 23.6447 2.20747 24.9986 3.87316 24.9986H37.1868C38.9566 24.9986 40.31 23.6447 40.31 21.8741V3.12654C40.31 1.35594 38.8525 0.00195312 37.1868 0.00195312Z" fill="black"/>
<path d="M37.1927 1.04297C38.3378 1.04297 39.2748 1.98034 39.2748 3.12603V21.8735C39.2748 23.0192 38.3378 23.9566 37.1927 23.9566H3.87898C2.73382 23.9566 1.79688 23.0192 1.79688 21.8735V3.12603C1.79688 1.98034 2.73382 1.04297 3.87898 1.04297H37.1927Z" fill="white"/>
<path d="M16.3655 19.7904C20.3902 19.7904 23.6529 16.5262 23.6529 12.4997C23.6529 8.47314 20.3902 5.20898 16.3655 5.20898C12.3408 5.20898 9.07812 8.47314 9.07812 12.4997C9.07812 16.5262 12.3408 19.7904 16.3655 19.7904Z" fill="#EB001B"/>
<path d="M24.6936 19.7904C28.7183 19.7904 31.981 16.5262 31.981 12.4997C31.981 8.47314 28.7183 5.20898 24.6936 5.20898C20.6689 5.20898 17.4062 8.47314 17.4062 12.4997C17.4062 16.5262 20.6689 19.7904 24.6936 19.7904Z" fill="#00A2E5"/>
<path d="M23.6526 12.4992C23.6526 9.99955 22.4033 7.81233 20.5294 6.5625C18.6555 7.91649 17.4062 10.1037 17.4062 12.4992C17.4062 14.8947 18.6555 17.1861 20.5294 18.4359C22.4033 17.1861 23.6526 14.9989 23.6526 12.4992Z" fill="#7375CF"/>
</g>
<defs>
<clipPath id="clip0_274_512">
<rect width="39.56" height="25" fill="white" transform="translate(0.75)"/>
</clipPath>
</defs>
</svg>
