<svg width="41" height="25" viewBox="0 0 41 25" fill="none" xmlns="http://www.w3.org/2000/svg">
<g clip-path="url(#clip0_274_491)">
<path opacity="0.07" d="M36.9368 0.00195312H3.62316C1.85337 0.00195312 0.5 1.35594 0.5 3.12654V21.8741C0.5 23.6447 1.95747 24.9986 3.62316 24.9986H36.9368C38.7066 24.9986 40.06 23.6447 40.06 21.8741V3.12654C40.06 1.35594 38.6025 0.00195312 36.9368 0.00195312Z" fill="black"/>
<path d="M36.9427 1.04297C38.0878 1.04297 39.0248 1.98034 39.0248 3.12603V21.8735C39.0248 23.0192 38.0878 23.9566 36.9427 23.9566H3.62898C2.48382 23.9566 1.54688 23.0192 1.54688 21.8735V3.12603C1.54688 1.98034 2.48382 1.04297 3.62898 1.04297H36.9427Z" fill="white"/>
<path d="M12.9952 12.4997V16.3533C12.9952 16.6658 12.787 16.6658 12.4747 16.5616C10.4967 15.7284 9.35154 13.1246 10.0803 10.9374C10.4967 9.79171 11.3295 8.85434 12.4747 8.43772C12.8911 8.22942 12.9952 8.33357 12.9952 8.64603V12.4997ZM15.0773 12.4997V8.64603C15.0773 8.33357 15.0773 8.33357 15.3896 8.43772C17.5759 9.27095 18.721 11.8748 17.8882 14.062C17.4717 15.2077 16.6389 16.145 15.4937 16.5616C15.0773 16.77 15.0773 16.6658 15.0773 16.3533V12.4997ZM22.5729 5.20898H14.0363C17.9923 5.20898 21.1154 8.43772 21.1154 12.4997C21.1154 16.5617 17.9923 19.7904 14.0363 19.7904H22.5729C26.5289 19.7904 29.6521 16.5617 29.6521 12.4997C29.6521 8.43772 26.5289 5.20898 22.5729 5.20898Z" fill="#3086C8"/>
</g>
<defs>
<clipPath id="clip0_274_491">
<rect width="39.56" height="25" fill="white" transform="translate(0.5)"/>
</clipPath>
</defs>
</svg>
