<svg width="40" height="25" viewBox="0 0 40 25" fill="none" xmlns="http://www.w3.org/2000/svg">
<g clip-path="url(#clip0_274_530)">
<path opacity="0.07" d="M36.4368 0.00195312H3.12316C1.35337 0.00195312 0 1.35594 0 3.12654V21.8741C0 23.6447 1.45747 24.9986 3.12316 24.9986H36.4368C38.2066 24.9986 39.56 23.6447 39.56 21.8741V3.12654C39.56 1.35594 38.1025 0.00195312 36.4368 0.00195312Z" fill="black"/>
<path d="M37.3623 0.00195312C38.571 0.00195312 39.56 1.02473 39.56 2.27457V22.726C39.56 23.9759 38.571 24.9986 37.3623 24.9986H2.19662C0.989 24.9986 0 23.9759 0 22.726V2.27457C0 1.02473 0.989 0.00195312 2.19766 0.00195312H37.3623Z" fill="#5A31F4"/>
<path d="M9.73461 11.841C8.67586 11.6088 8.20426 11.5182 8.20426 11.1068C8.20426 10.7193 8.52282 10.5256 9.16203 10.5256C9.7242 10.5256 10.1344 10.7735 10.4373 11.2588C10.448 11.2768 10.4651 11.2901 10.4853 11.2959C10.5054 11.3017 10.527 11.2996 10.5456 11.2901L11.7386 10.6818C11.7488 10.6764 11.7577 10.669 11.765 10.66C11.7722 10.651 11.7775 10.6406 11.7806 10.6296C11.7837 10.6185 11.7846 10.6069 11.7831 10.5954C11.7816 10.584 11.7778 10.573 11.7719 10.5631C11.2774 9.69756 10.3634 9.22367 9.1589 9.22367C7.5765 9.22367 6.59375 10.01 6.59375 11.2609C6.59375 12.5888 7.79096 12.9242 8.85283 13.1565C9.91471 13.3877 10.3873 13.4794 10.3873 13.8908C10.3873 14.3032 10.0417 14.4969 9.35358 14.4969C8.71646 14.4969 8.24486 14.2032 7.95857 13.6325C7.94855 13.6129 7.93123 13.5981 7.91037 13.5913C7.88951 13.5845 7.8668 13.5862 7.84718 13.596L6.65725 14.1897C6.63706 14.2001 6.6218 14.2181 6.61478 14.2398C6.60776 14.2614 6.60956 14.285 6.61978 14.3053C7.09241 15.2635 8.06059 15.802 9.35462 15.802C11.0026 15.802 11.9979 15.0292 11.9979 13.7397C11.9979 12.4503 10.7954 12.0754 9.73565 11.8442L9.73461 11.841ZM16.1267 9.22367C15.45 9.22367 14.8524 9.4653 14.4235 9.8965C14.4176 9.90272 14.41 9.90699 14.4016 9.9087C14.3932 9.91042 14.3845 9.90951 14.3766 9.9061C14.3688 9.90268 14.3622 9.89693 14.3577 9.88962C14.3532 9.88231 14.3511 9.8738 14.3517 9.86525V7.11561C14.3518 7.10458 14.3498 7.09364 14.3456 7.08341C14.3415 7.07318 14.3354 7.06387 14.3277 7.05602C14.3199 7.04817 14.3107 7.04194 14.3005 7.03769C14.2903 7.03344 14.2794 7.03125 14.2684 7.03125H12.7745C12.7634 7.03125 12.7524 7.03347 12.7421 7.03779C12.7319 7.0421 12.7226 7.04843 12.7148 7.05639C12.7071 7.06435 12.701 7.07378 12.6969 7.08413C12.6929 7.09448 12.6909 7.10554 12.6912 7.11666V15.6509C12.6909 15.6621 12.6929 15.6731 12.6969 15.6835C12.701 15.6938 12.7071 15.7033 12.7148 15.7112C12.7226 15.7192 12.7319 15.7255 12.7421 15.7298C12.7524 15.7341 12.7634 15.7364 12.7745 15.7363H14.2663C14.2775 15.7365 14.2886 15.7344 14.299 15.7301C14.3094 15.7259 14.3188 15.7196 14.3266 15.7116C14.3345 15.7036 14.3407 15.6941 14.3448 15.6837C14.3489 15.6733 14.3509 15.6621 14.3506 15.6509V11.9077C14.3506 11.1838 14.9003 10.6297 15.6405 10.6297C16.3796 10.6297 16.9168 11.1724 16.9168 11.9077V15.6509C16.9165 15.6621 16.9185 15.6733 16.9227 15.6837C16.9268 15.6941 16.933 15.7036 16.9408 15.7116C16.9487 15.7196 16.9581 15.7259 16.9685 15.7301C16.9788 15.7344 16.99 15.7365 17.0012 15.7363H18.493C18.5042 15.7365 18.5153 15.7344 18.5257 15.7301C18.536 15.7259 18.5454 15.7196 18.5533 15.7116C18.5612 15.7036 18.5674 15.6941 18.5715 15.6837C18.5756 15.6733 18.5776 15.6621 18.5773 15.6509V11.9077C18.5773 10.335 17.5571 9.22367 16.1267 9.22367ZM21.6057 8.97891C20.7958 8.97891 20.0369 9.22888 19.4924 9.59133C19.4742 9.60312 19.4611 9.62143 19.4559 9.64252C19.4506 9.66362 19.4537 9.68591 19.4643 9.70486L20.1222 10.838C20.1276 10.8477 20.1349 10.8561 20.1436 10.8629C20.1523 10.8697 20.1623 10.8747 20.1729 10.8777C20.1836 10.8806 20.1947 10.8813 20.2057 10.8799C20.2166 10.8784 20.2272 10.8748 20.2367 10.8693C20.6498 10.6171 21.125 10.4851 21.6089 10.4881C22.9102 10.4881 23.8679 11.4161 23.8679 12.642C23.8679 13.6866 23.1017 14.4594 22.1304 14.4594C21.3392 14.4594 20.7895 13.9949 20.7895 13.3377C20.7895 12.9617 20.9478 12.6534 21.36 12.4357C21.3703 12.4305 21.3793 12.4233 21.3866 12.4144C21.3939 12.4055 21.3993 12.3952 21.4024 12.3842C21.4055 12.3731 21.4064 12.3616 21.4048 12.3502C21.4032 12.3388 21.3993 12.3279 21.3934 12.3181L20.7729 11.2578C20.763 11.2405 20.7473 11.2274 20.7286 11.2207C20.7099 11.214 20.6894 11.2142 20.6709 11.2213C19.8391 11.5327 19.2561 12.2816 19.2561 13.2877C19.2561 14.8083 20.4554 15.9436 22.1294 15.9436C24.0834 15.9436 25.4889 14.5761 25.4889 12.6159C25.4889 10.5141 23.8544 8.97891 21.6057 8.97891ZM29.8529 9.21117C29.0992 9.21117 28.4236 9.49238 27.9322 9.98815C27.9051 10.0163 27.8604 9.99544 27.8604 9.95795V9.36219C27.8607 9.35108 27.8587 9.34002 27.8546 9.32967C27.8506 9.31931 27.8445 9.30988 27.8367 9.30192C27.829 9.29396 27.8197 9.28764 27.8095 9.28332C27.7992 9.27901 27.7882 9.27678 27.7771 9.27679H26.3227C26.3116 9.27678 26.3006 9.27901 26.2904 9.28332C26.2801 9.28764 26.2709 9.29396 26.2631 9.30192C26.2553 9.30988 26.2492 9.31931 26.2452 9.32967C26.2411 9.34002 26.2392 9.35108 26.2395 9.36219V17.884C26.2393 17.895 26.2414 17.906 26.2455 17.9162C26.2496 17.9264 26.2557 17.9357 26.2635 17.9436C26.2712 17.9514 26.2805 17.9577 26.2906 17.9619C26.3008 17.9662 26.3117 17.9683 26.3227 17.9683H27.8146C27.8257 17.9685 27.8367 17.9664 27.847 17.9622C27.8573 17.958 27.8666 17.9518 27.8745 17.9439C27.8824 17.9361 27.8886 17.9267 27.8928 17.9164C27.8969 17.9061 27.899 17.8951 27.8989 17.884V15.0896C27.8989 15.0521 27.9437 15.0333 27.9707 15.0583C28.4807 15.535 29.1551 15.7962 29.8529 15.7874C31.604 15.7874 32.9688 14.3574 32.9688 12.4993C32.9688 10.6412 31.6019 9.21117 29.8529 9.21117ZM29.5708 14.3449C28.5756 14.3449 27.8208 13.545 27.8208 12.4878C27.8208 11.4307 28.5735 10.6308 29.5708 10.6308C30.5682 10.6308 31.3198 11.4171 31.3198 12.4878C31.3198 13.5575 30.5786 14.3449 29.5708 14.3449Z" fill="white"/>
</g>
<defs>
<clipPath id="clip0_274_530">
<rect width="39.56" height="25" fill="white"/>
</clipPath>
</defs>
</svg>
