<svg width="40" height="25" viewBox="0 0 40 25" fill="none" xmlns="http://www.w3.org/2000/svg">
<g clip-path="url(#clip0_274_524)">
<path opacity="0.07" d="M36.6868 0.00195312H3.37316C1.60337 0.00195312 0.25 1.35594 0.25 3.12654V21.8741C0.25 23.6447 1.70747 24.9986 3.37316 24.9986H36.6868C38.4566 24.9986 39.81 23.6447 39.81 21.8741V3.12654C39.81 1.35594 38.3525 0.00195312 36.6868 0.00195312Z" fill="black"/>
<path d="M36.6927 1.04297C37.8378 1.04297 38.7748 1.98034 38.7748 3.12603V21.8735C38.7748 23.0192 37.8378 23.9566 36.6927 23.9566H3.37898C2.23382 23.9566 1.29688 23.0192 1.29688 21.8735V3.12603C1.29688 1.98034 2.23382 1.04297 3.37898 1.04297H36.6927Z" fill="white"/>
<path d="M25.1345 8.64603C25.3428 7.6045 25.1345 6.87543 24.5099 6.25051C23.8853 5.52144 22.7401 5.20898 21.2827 5.20898H17.0143C16.702 5.20898 16.4938 5.41729 16.3897 5.72975L14.8281 16.2492C14.8281 16.4575 14.9322 16.6658 15.1404 16.6658H17.9513L18.3677 13.1246L20.2416 10.8332L25.1345 8.64603Z" fill="#003087"/>
<path d="M25.1311 8.64648L24.9229 8.85479C24.4024 11.7711 22.6326 12.8126 20.1341 12.8126H18.9889C18.6766 12.8126 18.4684 13.0209 18.3643 13.3334L17.7397 17.3953L17.5315 18.4369C17.5315 18.6452 17.6356 18.8535 17.8438 18.8535H20.03C20.3423 18.8535 20.5505 18.6452 20.5505 18.4369V18.3327L20.9669 15.833V15.7289C20.9669 15.5206 21.2793 15.3123 21.4875 15.3123H21.7998C23.986 15.3123 25.6517 14.479 26.0681 11.9794C26.2763 10.9378 26.1722 10.1046 25.6517 9.47971C25.5476 8.95894 25.3394 8.75064 25.1311 8.64648Z" fill="#3086C8"/>
<path d="M24.5016 8.43746C24.3975 8.33331 24.2934 8.33331 24.1893 8.33331C24.0852 8.33331 23.9811 8.33331 23.877 8.22915C23.5646 8.125 23.1482 8.125 22.7318 8.125H19.6086C19.5045 8.125 19.4004 8.125 19.4004 8.22915C19.1922 8.33331 19.0881 8.43746 19.0881 8.64576L18.3594 13.2285V13.3326C18.3594 13.0202 18.6717 12.8119 18.984 12.8119H20.3374C22.94 12.8119 24.6057 11.7704 25.1262 8.85407V8.64576C25.0221 8.54161 24.8139 8.43746 24.6057 8.43746H24.5016Z" fill="#012169"/>
</g>
<defs>
<clipPath id="clip0_274_524">
<rect width="39.56" height="25" fill="white" transform="translate(0.25)"/>
</clipPath>
</defs>
</svg>
