<svg width="40" height="25" viewBox="0 0 40 25" fill="none" xmlns="http://www.w3.org/2000/svg">
<g clip-path="url(#clip0_274_495)">
<path opacity="0.07" d="M36.6868 0.00195312H3.37316C1.60337 0.00195312 0.25 1.35594 0.25 3.12654V21.8741C0.25 23.6447 1.70747 24.9986 3.37316 24.9986H36.6868C38.4566 24.9986 39.81 23.6447 39.81 21.8741V3.12654C39.81 1.35594 38.3525 0.00195312 36.6868 0.00195312Z" fill="black"/>
<path d="M36.6927 1.04297C37.8378 1.04297 38.7748 1.98034 38.7748 3.12603V21.8735C38.7748 23.0192 37.8378 23.9566 36.6927 23.9566H3.37898C2.23382 23.9566 1.29688 23.0192 1.29688 21.8735V3.12603C1.29688 1.98034 2.23382 1.04297 3.37898 1.04297H36.6927Z" fill="white"/>
<path d="M3.97039 7.45897H2.33594V13.1874H3.97039C4.83446 13.1874 5.4591 12.9791 6.01085 12.5312C6.66672 11.9896 7.05191 11.1772 7.05191 10.3336C7.0415 8.6359 5.78182 7.45897 3.97039 7.45897ZM5.28212 11.7709C4.92816 12.0834 4.48051 12.2292 3.75177 12.2292H3.44986V8.43801H3.75177C4.4701 8.43801 4.90734 8.56299 5.28212 8.89628C5.66731 9.23998 5.89634 9.77116 5.89634 10.3232C5.89634 10.8752 5.66731 11.4272 5.28212 11.7709ZM7.56202 7.45897H8.67595V13.1874H7.56202V7.45897ZM11.4035 9.65659C10.7372 9.40663 10.5394 9.23998 10.5394 8.93794C10.5394 8.5734 10.8934 8.30261 11.3723 8.30261C11.7054 8.30261 11.9865 8.43801 12.2676 8.77129L12.8506 8.01098C12.3717 7.59437 11.7991 7.37565 11.1641 7.37565C10.1542 7.37565 9.37345 8.08389 9.37345 9.02126C9.37345 9.81282 9.73782 10.219 10.7789 10.594C11.2161 10.7502 11.4347 10.8544 11.5493 10.9168C11.7679 11.0627 11.8824 11.271 11.8824 11.5105C11.8824 11.9792 11.518 12.3229 11.0183 12.3229C10.4874 12.3229 10.0605 12.0521 9.80028 11.5626L9.08196 12.2604C9.59207 13.0207 10.2167 13.354 11.06 13.354C12.2155 13.354 13.038 12.5833 13.038 11.4689C13.0588 10.5419 12.6736 10.1253 11.4035 9.65659ZM13.4023 10.3336C13.4023 12.0209 14.7245 13.3228 16.4214 13.3228C16.9003 13.3228 17.3167 13.229 17.8164 12.9895V11.6772C17.3687 12.125 16.9731 12.3021 16.4734 12.3021C15.3491 12.3021 14.5475 11.4897 14.5475 10.3232C14.5475 9.21915 15.3699 8.35468 16.4214 8.35468C16.9523 8.35468 17.3583 8.54216 17.8164 9.00043V7.6881C17.3271 7.43814 16.9211 7.33398 16.4422 7.33398C14.7661 7.33398 13.4023 8.66714 13.4023 10.3336ZM26.6862 11.3126L25.1558 7.45897H23.9378L26.3634 13.3332H26.9672L29.4345 7.45897H28.2269L26.6862 11.3126ZM29.9447 13.1874H33.1095V12.2188H31.0586V10.6773H33.0366V9.70867H31.0586V8.43801H33.1095V7.45897H29.9447V13.1874ZM37.5339 9.15666C37.5339 8.08389 36.7948 7.46938 35.5039 7.46938H33.8486V13.1978H34.9625V10.896H35.1083L36.649 13.1978H38.0232L36.2222 10.7814C37.0655 10.6044 37.5339 10.0315 37.5339 9.15666ZM35.2853 10.1045H34.9625V8.3651H35.3061C36.0036 8.3651 36.3784 8.65673 36.3784 9.21915C36.3784 9.79199 36.0036 10.1045 35.2853 10.1045Z" fill="#231F20"/>
<path d="M21.2388 13.3945C22.0481 13.3945 22.8242 13.0729 23.3964 12.5004C23.9687 11.9279 24.2902 11.1514 24.2902 10.3418C24.2902 9.53215 23.9687 8.75568 23.3964 8.18318C22.8242 7.61069 22.0481 7.28906 21.2388 7.28906C20.4296 7.28906 19.6534 7.61069 19.0812 8.18318C18.509 8.75568 18.1875 9.53215 18.1875 10.3418C18.1875 11.1514 18.509 11.9279 19.0812 12.5004C19.6534 13.0729 20.4296 13.3945 21.2388 13.3945Z" fill="url(#paint0_linear_274_495)"/>
<path opacity="0.65" d="M21.2388 13.3945C22.0481 13.3945 22.8242 13.0729 23.3964 12.5004C23.9687 11.9279 24.2902 11.1514 24.2902 10.3418C24.2902 9.53215 23.9687 8.75568 23.3964 8.18318C22.8242 7.61069 22.0481 7.28906 21.2388 7.28906C20.4296 7.28906 19.6534 7.61069 19.0812 8.18318C18.509 8.75568 18.1875 9.53215 18.1875 10.3418C18.1875 11.1514 18.509 11.9279 19.0812 12.5004C19.6534 13.0729 20.4296 13.3945 21.2388 13.3945Z" fill="url(#paint1_linear_274_495)"/>
<path d="M38.3229 7.82029C38.3229 7.71614 38.25 7.66406 38.1354 7.66406H37.9688V8.164H38.0937V7.96611L38.2395 8.164H38.3854L38.2187 7.95569C38.2812 7.94528 38.3229 7.8932 38.3229 7.82029ZM38.1146 7.8932H38.0937V7.7578H38.1146C38.1771 7.7578 38.2083 7.77863 38.2083 7.82029C38.2083 7.87237 38.1771 7.8932 38.1146 7.8932Z" fill="#231F20"/>
<path d="M38.1562 7.47656C37.9166 7.47656 37.7188 7.67445 37.7188 7.914C37.7188 8.15356 37.9166 8.35145 38.1562 8.35145C38.3957 8.35145 38.5936 8.15356 38.5936 7.914C38.5936 7.67445 38.3957 7.47656 38.1562 7.47656ZM38.1562 8.27854C37.9687 8.27854 37.8021 8.12231 37.8021 7.914C37.8021 7.71611 37.9583 7.54947 38.1562 7.54947C38.3437 7.54947 38.4999 7.71611 38.4999 7.914C38.4999 8.1119 38.3437 8.27854 38.1562 8.27854Z" fill="#231F20"/>
<path d="M38.7682 13.5234C38.7682 13.5234 28.4514 20.6985 9.59375 23.9554H36.6851C37.2344 23.9554 37.7615 23.7382 38.1515 23.3512C38.5415 22.9641 38.7628 22.4386 38.7672 21.889L38.7922 18.7436L38.7682 13.5234Z" fill="#F48120"/>
</g>
<defs>
<linearGradient id="paint0_linear_274_495" x1="22.7973" y1="12.7852" x2="20.6878" y2="9.4834" gradientUnits="userSpaceOnUse">
<stop stop-color="#F89F20"/>
<stop offset="0.25" stop-color="#F79A20"/>
<stop offset="0.533" stop-color="#F68D20"/>
<stop offset="0.62" stop-color="#F58720"/>
<stop offset="0.723" stop-color="#F48120"/>
<stop offset="1" stop-color="#F37521"/>
</linearGradient>
<linearGradient id="paint1_linear_274_495" x1="22.4652" y1="12.7404" x2="19.3814" y2="6.71528" gradientUnits="userSpaceOnUse">
<stop stop-color="#F58720"/>
<stop offset="0.359" stop-color="#E16F27"/>
<stop offset="0.703" stop-color="#D4602C"/>
<stop offset="0.982" stop-color="#D05B2E"/>
</linearGradient>
<clipPath id="clip0_274_495">
<rect width="39.56" height="25" fill="white" transform="translate(0.25)"/>
</clipPath>
</defs>
</svg>
