<svg width="40" height="25" viewBox="0 0 40 25" fill="none" xmlns="http://www.w3.org/2000/svg">
<g clip-path="url(#clip0_274_471)">
<path opacity="0.07" d="M36.4368 0.00195312H3.12316C1.35337 0.00195312 0 1.35594 0 3.12654V21.8741C0 23.6447 1.45747 24.9986 3.12316 24.9986H36.4368C38.2066 24.9986 39.56 23.6447 39.56 21.8741V3.12654C39.56 1.35594 38.1025 0.00195312 36.4368 0.00195312Z" fill="black"/>
<path d="M36.4427 1.04297C37.5878 1.04297 38.5248 1.98034 38.5248 3.12603V21.8735C38.5248 23.0192 37.5878 23.9566 36.4427 23.9566H3.12898C1.98382 23.9566 1.04688 23.0192 1.04688 21.8735V3.12603C1.04688 1.98034 1.98382 1.04297 3.12898 1.04297H36.4427Z" fill="#006FCF"/>
<path d="M22.9141 20.7668V11.9961L38.5174 12.0096V14.4322L36.7143 16.3611L38.5174 18.3057V20.7793H35.6378L34.1075 19.0899L32.5875 20.7856L22.9141 20.7647V20.7668Z" fill="white"/>
<path d="M23.9531 19.8038V12.9609H29.7539V14.5368H25.8312V15.6075H29.6602V17.1573H25.8312V18.2092H29.7539V19.8038H23.9531Z" fill="#006FCF"/>
<path d="M29.7344 19.8029L32.9439 16.3773L29.7344 12.959H32.2183L34.1797 15.1285L36.1473 12.96H38.524V13.0131L35.3831 16.3773L38.524 19.7071V19.8039H36.1223L34.1266 17.6136L32.1507 19.805H29.7344V19.8029Z" fill="#006FCF"/>
<path d="M23.6436 4.20898H27.4059L28.727 7.20963V4.20898H33.3701L34.1717 6.45765L34.9744 4.20898H38.5202V12.9797H19.7812L23.6436 4.20898Z" fill="white"/>
<path d="M24.356 5.16211L21.3203 12.0008H23.4024L23.975 10.6312H27.0773L27.6499 12.0008H29.7841L26.7609 5.16211H24.356ZM24.6163 9.09596L25.5272 6.91917L26.436 9.09596H24.6163Z" fill="#006FCF"/>
<path d="M29.75 11.9999V5.16016L32.6764 5.17057L34.1838 9.37522L35.6996 5.1612H38.5146V11.9988L36.7032 12.0155V7.3182L34.9917 11.9988H33.3364L31.5916 7.30258V11.9999H29.751H29.75Z" fill="#006FCF"/>
</g>
<defs>
<clipPath id="clip0_274_471">
<rect width="39.56" height="25" fill="white"/>
</clipPath>
</defs>
</svg>
