<svg width="16" height="16" viewBox="0 0 16 16" fill="none" xmlns="http://www.w3.org/2000/svg">
<g clip-path="url(#clip0_274_458)">
<path fill-rule="evenodd" clip-rule="evenodd" d="M6.21688 9.68884L6.2164 5.44441L10.2692 7.57395L6.21688 9.68884ZM15.1156 4.70892C15.1156 4.70892 14.9689 3.668 14.5194 3.20961C13.9489 2.60771 13.3095 2.60488 13.0166 2.56994C10.9175 2.41699 7.76891 2.41699 7.76891 2.41699H7.76234C7.76234 2.41699 4.61376 2.41699 2.51469 2.56994C2.22126 2.60488 1.58234 2.60771 1.0114 3.20961C0.561867 3.668 0.415619 4.70892 0.415619 4.70892C0.415619 4.70892 0.265625 5.93159 0.265625 7.1538V8.3C0.265625 9.52267 0.415619 10.7449 0.415619 10.7449C0.415619 10.7449 0.561867 11.7858 1.0114 12.2442C1.58234 12.8461 2.33187 12.8272 2.66562 12.89C3.86562 13.0061 7.76562 13.042 7.76562 13.042C7.76562 13.042 10.9175 13.0373 13.0166 12.8843C13.3095 12.8489 13.9489 12.8461 14.5194 12.2442C14.9689 11.7858 15.1156 10.7449 15.1156 10.7449C15.1156 10.7449 15.2656 9.52267 15.2656 8.3V7.1538C15.2656 5.93159 15.1156 4.70892 15.1156 4.70892Z" fill="white"/>
</g>
<defs>
<clipPath id="clip0_274_458">
<rect width="15" height="15" fill="white" transform="translate(0.265625 0.229492)"/>
</clipPath>
</defs>
</svg>
