<svg width="16" height="16" viewBox="0 0 16 16" fill="none" xmlns="http://www.w3.org/2000/svg">
<g clip-path="url(#clip0_297_1511)">
<path fill-rule="evenodd" clip-rule="evenodd" d="M8.46584 0.229492C6.42895 0.229492 6.17354 0.23813 5.37359 0.27463C4.5753 0.31104 4.0301 0.43783 3.55304 0.623245C3.05985 0.814883 2.64159 1.07134 2.22461 1.48829C1.80767 1.90526 1.55121 2.32351 1.35957 2.81671C1.17416 3.29376 1.04736 3.83896 1.01095 4.63725C0.974448 5.43721 0.96582 5.69262 0.96582 7.72951C0.96582 9.76637 0.974448 10.0218 1.01095 10.8217C1.04736 11.62 1.17416 12.1652 1.35957 12.6423C1.55121 13.1355 1.80767 13.5537 2.22461 13.9707C2.64159 14.3876 3.05985 14.6441 3.55304 14.8358C4.0301 15.0212 4.5753 15.1479 5.37359 15.1844C6.17354 15.2209 6.42895 15.2295 8.46584 15.2295C10.5027 15.2295 10.7581 15.2209 11.5581 15.1844C12.3563 15.1479 12.9015 15.0212 13.3786 14.8358C13.8718 14.6441 14.2901 14.3876 14.707 13.9707C15.124 13.5537 15.3804 13.1355 15.5721 12.6423C15.7575 12.1652 15.8843 11.62 15.9207 10.8217C15.9572 10.0218 15.9658 9.76637 15.9658 7.72951C15.9658 5.69262 15.9572 5.43721 15.9207 4.63725C15.8843 3.83896 15.7575 3.29376 15.5721 2.81671C15.3804 2.32351 15.124 1.90526 14.707 1.48829C14.2901 1.07134 13.8718 0.814883 13.3786 0.623245C12.9015 0.43783 12.3563 0.31104 11.5581 0.27463C10.7581 0.23813 10.5027 0.229492 8.46584 0.229492ZM8.46584 1.58084C10.4684 1.58084 10.7056 1.58849 11.4965 1.62457C12.2277 1.65792 12.6248 1.7801 12.8891 1.88281C13.2392 2.01887 13.489 2.18138 13.7515 2.44385C14.0139 2.70628 14.1764 2.95613 14.3125 3.30621C14.4152 3.57049 14.5374 3.96761 14.5707 4.69885C14.6068 5.48969 14.6145 5.72691 14.6145 7.72951C14.6145 9.73208 14.6068 9.96929 14.5707 10.7601C14.5374 11.4914 14.4152 11.8885 14.3125 12.1528C14.1764 12.5029 14.0139 12.7527 13.7515 13.0151C13.489 13.2776 13.2392 13.4401 12.8891 13.5762C12.6248 13.6789 12.2277 13.8011 11.4965 13.8344C10.7057 13.8705 10.4686 13.8781 8.46584 13.8781C6.46309 13.8781 6.22593 13.8705 5.43518 13.8344C4.70393 13.8011 4.30681 13.6789 4.04253 13.5762C3.69245 13.4401 3.44261 13.2776 3.18018 13.0151C2.91774 12.7527 2.7552 12.5029 2.61915 12.1528C2.51644 11.8885 2.39426 11.4914 2.36091 10.7601C2.32483 9.96929 2.31718 9.73208 2.31718 7.72951C2.31718 5.72691 2.32483 5.48969 2.36091 4.69885C2.39426 3.96761 2.51644 3.57049 2.61915 3.30621C2.7552 2.95613 2.91771 2.70628 3.18018 2.44385C3.44261 2.18138 3.69245 2.01887 4.04253 1.88281C4.30681 1.7801 4.70393 1.65792 5.43518 1.62457C6.22602 1.58849 6.46324 1.58084 8.46584 1.58084ZM8.46584 3.87815C6.33877 3.87815 4.61446 5.60244 4.61446 7.72951C4.61446 9.85655 6.33877 11.5808 8.46584 11.5808C10.5929 11.5808 12.3172 9.85655 12.3172 7.72951C12.3172 5.60244 10.5929 3.87815 8.46584 3.87815ZM8.46584 10.2295C7.08511 10.2295 5.96582 9.11021 5.96582 7.72951C5.96582 6.34878 7.08511 5.22949 8.46584 5.22949C9.84654 5.22949 10.9658 6.34878 10.9658 7.72951C10.9658 9.11021 9.84654 10.2295 8.46584 10.2295ZM13.3693 3.72599C13.3693 4.22305 12.9664 4.62597 12.4693 4.62597C11.9723 4.62597 11.5693 4.22305 11.5693 3.72599C11.5693 3.22892 11.9723 2.82597 12.4693 2.82597C12.9664 2.82597 13.3693 3.22892 13.3693 3.72599Z" fill="white"/>
</g>
<defs>
<clipPath id="clip0_297_1511">
<rect width="15" height="15" fill="white" transform="translate(0.96582 0.229492)"/>
</clipPath>
</defs>
</svg>
