<svg width="16" height="16" viewBox="0 0 16 16" fill="none" xmlns="http://www.w3.org/2000/svg">
<g clip-path="url(#clip0_297_1507)">
<path fill-rule="evenodd" clip-rule="evenodd" d="M8.68679 15.2295H1.50269C1.04533 15.2295 0.674805 14.8587 0.674805 14.4016V1.05737C0.674805 0.600067 1.04539 0.229492 1.50269 0.229492H14.847C15.3042 0.229492 15.6748 0.600067 15.6748 1.05737V14.4016C15.6748 14.8588 15.3041 15.2295 14.847 15.2295H11.0246V9.42066H12.9743L13.2663 7.15686H11.0246V5.71157C11.0246 5.05614 11.2066 4.6095 12.1465 4.6095L13.3452 4.60897V2.58421C13.1379 2.55662 12.4263 2.49498 11.5984 2.49498C9.87007 2.49498 8.68679 3.54996 8.68679 5.48737V7.15686H6.73203V9.42066H8.68679V15.2295Z" fill="white"/>
</g>
<defs>
<clipPath id="clip0_297_1507">
<rect width="15" height="15" fill="white" transform="translate(0.674805 0.229492)"/>
</clipPath>
</defs>
</svg>
