<svg width="16" height="16" viewBox="0 0 16 16" fill="none" xmlns="http://www.w3.org/2000/svg">
<g clip-path="url(#clip0_274_462)">
<path fill-rule="evenodd" clip-rule="evenodd" d="M8.06587 0.229492C3.92404 0.229492 0.56543 3.58722 0.56543 7.72993C0.56543 10.8001 2.41232 13.439 5.05564 14.5989C5.03448 14.0758 5.05211 13.4461 5.1853 12.8763C5.32994 12.2678 6.15018 8.79008 6.15018 8.79008C6.15018 8.79008 5.91117 8.31117 5.91117 7.60293C5.91117 6.49162 6.5559 5.66167 7.35763 5.66167C8.03941 5.66167 8.36928 6.1741 8.36928 6.78797C8.36928 7.47327 7.93181 8.49903 7.70691 9.44893C7.51904 10.2454 8.10556 10.8936 8.89053 10.8936C10.3114 10.8936 11.2684 9.0688 11.2684 6.90616C11.2684 5.26301 10.1615 4.03263 8.14789 4.03263C5.87324 4.03263 4.45589 5.7287 4.45589 7.62321C4.45589 8.27765 4.64816 8.73805 4.9498 9.09437C5.08916 9.2593 5.10768 9.32458 5.05741 9.51332C5.02213 9.65003 4.93922 9.98342 4.90482 10.1148C4.85455 10.3045 4.70108 10.3733 4.52998 10.3027C3.48129 9.87493 2.99355 8.72747 2.99355 7.43711C2.99355 5.30711 4.79016 2.7511 8.3534 2.7511C11.2172 2.7511 13.102 4.82466 13.102 7.04816C13.102 9.99048 11.4668 12.1884 9.05458 12.1884C8.2458 12.1884 7.48376 11.7509 7.22269 11.2544C7.22269 11.2544 6.78698 12.9822 6.69526 13.3156C6.5365 13.8933 6.22515 14.4719 5.94027 14.9217C6.61499 15.121 7.32764 15.2295 8.06587 15.2295C12.2077 15.2295 15.5654 11.8718 15.5654 7.72993C15.5654 3.58722 12.2077 0.229492 8.06587 0.229492Z" fill="white"/>
</g>
<defs>
<clipPath id="clip0_274_462">
<rect width="15" height="15" fill="white" transform="translate(0.56543 0.229492)"/>
</clipPath>
</defs>
</svg>
