<svg width="16" height="16" viewBox="0 0 16 16" fill="none" xmlns="http://www.w3.org/2000/svg">
<g clip-path="url(#clip0_297_1503)">
<path fill-rule="evenodd" clip-rule="evenodd" d="M15.375 2.95927C14.8238 3.21026 14.2304 3.38 13.608 3.45584C14.2436 3.06581 14.7314 2.44735 14.9612 1.71062C14.366 2.07177 13.7083 2.33449 13.0057 2.47534C12.4458 1.8623 11.6455 1.47949 10.7598 1.47949C9.06139 1.47949 7.6835 2.89246 7.6835 4.63496C7.6835 4.88234 7.70992 5.1225 7.76274 5.35363C5.20507 5.22182 2.93795 3.96685 1.4192 2.05551C1.15419 2.52319 1.00275 3.0658 1.00275 3.64363C1.00275 4.73788 1.54598 5.70394 2.37183 6.27003C1.86822 6.25468 1.39278 6.11113 0.977217 5.87639V5.91521C0.977217 7.44465 2.03814 8.72037 3.44684 9.00928C3.18887 9.08332 2.91682 9.12034 2.63596 9.12034C2.43786 9.12034 2.24417 9.10138 2.05663 9.06436C2.44843 10.3175 3.58419 11.2303 4.93126 11.2547C3.87826 12.1016 2.55056 12.6062 1.10929 12.6062C0.861003 12.6062 0.615359 12.5918 0.375 12.5629C1.73704 13.4567 3.35528 13.9795 5.09238 13.9795C10.7536 13.9795 13.8483 9.1718 13.8483 5.00153C13.8483 4.86429 13.8457 4.72706 13.8404 4.59253C14.4417 4.14743 14.9638 3.59217 15.375 2.95927Z" fill="white"/>
</g>
<defs>
<clipPath id="clip0_297_1503">
<rect width="15" height="15" fill="white" transform="translate(0.375 0.229492)"/>
</clipPath>
</defs>
</svg>
